HIERARCHY
ROOT Hips
{
	OFFSET 0.000000 0.000000 0.000000 
	CHANNELS 6 Xposition Yposition Zposition Zrotation Yrotation Xrotation
	JOINT LeftUpLeg
	{
		OFFSET 1.363060 -1.794630 0.839290 
		CHANNELS 3 Zrotation Yrotation Xrotation
		JOINT LeftLeg
		{
			OFFSET 2.448110 -6.726130 0.000000 
			CHANNELS 3 Zrotation Yrotation Xrotation
			JOINT LeftFoot
			{
				OFFSET 2.562200 -7.039590 0.000000 
				CHANNELS 3 Zrotation Yrotation Xrotation
				JOINT LeftToeBase
				{
					OFFSET 0.157640 -0.433110 2.322550 
					CHANNELS 3 Zrotation Yrotation Xrotation
					End Site
					{
						OFFSET 0.000000 0.000000 0.000000 
					}
				}
			}
		}
	}
	JOINT RightUpLeg
	{
		OFFSET -1.305520 -1.794630 0.839290 
		CHANNELS 3 Zrotation Yrotation Xrotation
		JOINT RightLeg
		{
			OFFSET -2.542530 -6.985550 0.000000 
			CHANNELS 3 Zrotation Yrotation Xrotation
			JOINT RightFoot
			{
				OFFSET -2.568260 -7.056230 0.000000 
				CHANNELS 3 Zrotation Yrotation Xrotation
				JOINT RightToeBase
				{
					OFFSET -0.164730 -0.452590 2.363150 
					CHANNELS 3 Zrotation Yrotation Xrotation
					End Site
					{
						OFFSET 0.000000 0.000000 0.000000 
					}
				}
			}
		}
	}
	JOINT Spine
	{
		OFFSET 0.028270 2.035590 -0.193380 
		CHANNELS 3 Zrotation Yrotation Xrotation
		JOINT Spine1
		{
			OFFSET 0.056720 2.048850 -0.042750 
			CHANNELS 3 Zrotation Yrotation Xrotation
			JOINT Neck1
			{
				OFFSET -0.054170 1.746240 0.172020 
				CHANNELS 3 Zrotation Yrotation Xrotation
				JOINT Head
				{
					OFFSET 0.104070 1.761360 -0.123970 
					CHANNELS 3 Zrotation Yrotation Xrotation
					End Site
					{
						OFFSET 0.000000 0.000000 0.000000 
					}
				}
			}
			JOINT LeftArm
			{
				OFFSET 3.362410 1.200890 -0.311210 
				CHANNELS 3 Zrotation Yrotation Xrotation
				JOINT LeftForeArm
				{
					OFFSET 4.983000 -0.000000 -0.000000 
					CHANNELS 3 Zrotation Yrotation Xrotation
					JOINT LeftHand
					{
						OFFSET 3.483560 -0.000000 -0.000000 
						CHANNELS 3 Zrotation Yrotation Xrotation
						JOINT LeftHandIndex1
						{
							OFFSET 0.715260 -0.000000 -0.000000 
							CHANNELS 3 Zrotation Yrotation Xrotation
							End Site
							{
								OFFSET 0.000000 0.000000 0.000000 
							}
						}
					}
				}
			}
			JOINT RightArm
			{
				OFFSET -3.136600 1.374050 -0.404650 
				CHANNELS 3 Zrotation Yrotation Xrotation
				JOINT RightForeArm
				{
					OFFSET -5.241900 -0.000000 -0.000000 
					CHANNELS 3 Zrotation Yrotation Xrotation
					JOINT RightHand
					{
						OFFSET -3.444170 -0.000000 -0.000000 
						CHANNELS 3 Zrotation Yrotation Xrotation
						JOINT RightHandIndex1
						{
							OFFSET -0.622530 -0.000000 -0.000000 
							CHANNELS 3 Zrotation Yrotation Xrotation
							End Site
							{
								OFFSET 0.000000 0.000000 0.000000 
							}
						}
					}
				}
			}
		}
	}
}
MOTION
Frames: 13
Frame Time: 0.041667
9.478552 17.730468 -14.595262 -0.746397 -3.491591 -0.336017 -10.669122 -0.858637 -4.759896 -0.212654 6.697014 18.173555 -0.364288 3.618846 -2.807187 0.542800 -4.720200 -13.112200 14.902227 1.075205 0.374538 -0.283355 -5.102481 13.333660 1.026636 -8.434654 -4.827270 -0.175900 2.701800 -7.449600 0.930074 1.444510 -3.565137 4.200725 1.036219 -1.161351 4.389876 -1.210178 13.740298 3.232700 -1.038900 10.348800 -81.468975 -17.820936 45.888281 120.683183 -59.024230 -86.368315 0.383589 0.354356 -10.742383 -7.125000 0.000000 0.000000 83.310691 12.734738 46.026218 -132.002278 50.604546 -95.219342 0.297519 -0.379775 -25.114115 7.125000 0.000000 0.000000 
9.487192 17.731774 -14.585919 -0.731602 -3.516051 -0.383099 -10.718927 -0.900517 -4.628003 -0.223579 6.664549 18.081195 -0.365435 3.620979 -2.734820 0.482900 -4.456300 -12.364100 14.820041 0.922911 0.321972 -0.297533 -5.157716 13.491717 0.984682 -8.185429 -4.879791 -0.179700 2.730200 -7.528400 0.910500 1.497461 -3.560228 4.068848 1.061725 -1.142132 4.382964 -1.207168 13.880907 3.237600 -1.044100 10.402400 -81.699991 -17.805494 46.084286 120.306001 -59.145160 -86.061029 0.400392 0.350861 -10.927066 -7.125000 0.000000 0.000000 83.452102 12.524260 46.048746 -132.136095 50.540162 -95.330097 0.300841 -0.379689 -25.262968 7.125000 0.000000 0.000000 
9.503165 17.737098 -14.576777 -0.637702 -3.450452 -0.489554 -10.876094 -1.152114 -4.409952 -0.229795 6.658713 18.063051 -0.359773 3.592596 -2.738959 0.319300 -3.632400 -10.044800 14.579416 0.525374 0.364173 -0.300990 -5.156579 13.494530 0.931881 -7.866713 -4.839545 -0.163200 2.602400 -7.173800 0.843558 1.496010 -3.552225 3.659747 1.059479 -1.129546 4.461153 -1.297357 13.949824 3.266700 -1.074000 10.404100 -81.887215 -17.692867 46.531071 120.098868 -59.222859 -85.894185 0.406173 0.357853 -11.027621 -7.125000 0.000000 0.000000 83.873930 12.315280 46.298611 -132.255163 50.466565 -95.424907 0.305909 -0.385772 -25.399765 7.125000 0.000000 0.000000 
9.508490 17.738304 -14.565927 -0.439242 -3.490330 -0.701977 -11.113414 -1.284034 -4.238634 -0.205795 6.739804 18.290096 -0.359694 3.596838 -2.923981 0.226700 -3.064900 -8.459500 14.326507 0.313287 0.745957 -0.277271 -5.034792 13.164524 0.932664 -7.861647 -4.687256 -0.163200 2.602400 -7.173700 0.839246 1.402957 -3.590213 3.761668 1.024818 -1.386059 4.591327 -1.159944 14.074218 3.373400 -1.017700 10.398800 -82.198185 -17.353921 47.065132 119.835017 -59.292077 -85.679779 0.412161 0.362832 -11.008805 -7.125000 0.000000 0.000000 84.104129 11.851461 46.931650 -132.247230 50.457468 -95.411210 0.307949 -0.384062 -25.136566 7.125000 0.000000 0.000000 
9.497539 17.732678 -14.554575 -0.576836 -3.711724 -0.861174 -10.951055 -1.003969 -4.266265 -0.154177 6.860787 18.648459 -0.332546 3.486840 -3.254389 0.265800 -3.316600 -9.161400 14.605384 0.643473 1.263109 -0.244674 -4.901910 12.789246 0.996877 -8.248159 -4.670694 -0.184800 2.768800 -7.635600 0.847613 1.459511 -3.593336 3.738920 1.057978 -1.474187 4.335812 -1.151318 14.125728 3.218000 -1.031300 10.386700 -82.404219 -17.292656 47.866609 119.316461 -59.428169 -85.259889 0.419235 0.359234 -11.000197 -7.125000 0.000000 0.000000 84.429128 11.407045 47.565810 -132.209301 50.463964 -95.369945 0.310203 -0.384942 -24.929192 7.125000 0.000000 0.000000 
9.486790 17.731573 -14.561809 -1.669635 -4.170346 -0.626778 -9.743233 -0.620709 -4.631645 -0.116368 6.897303 18.786023 -0.343980 3.542595 -3.247725 0.338600 -3.739600 -10.345100 16.040262 1.616394 1.253577 -0.239276 -4.932854 12.849691 1.081179 -8.763880 -4.800207 -0.196300 2.853400 -7.870800 0.894457 1.740513 -3.566751 3.212521 1.188962 -1.285851 3.971330 -1.288874 14.113140 2.973600 -1.102100 10.406800 -82.514107 -17.491021 48.916462 118.571671 -59.640997 -84.657508 0.436255 0.353588 -11.077191 -7.125000 0.000000 0.000000 84.912748 11.305777 48.250277 -132.056855 50.511095 -95.230629 0.312572 -0.395966 -24.771053 7.125000 0.000000 0.000000 
9.486488 17.731673 -14.575170 -2.478556 -4.559751 -0.317487 -8.850704 -0.521907 -4.986932 -0.094586 6.917200 18.861868 -0.367450 3.649983 -3.219657 0.315400 -3.609900 -9.981800 17.055595 2.355370 0.972170 -0.248109 -5.006408 13.040134 1.126186 -9.037033 -4.848943 -0.193200 2.830700 -7.807900 0.962724 1.889401 -3.567666 3.000371 1.259554 -1.179310 3.941696 -1.200294 14.167793 2.981800 -1.067000 10.457900 -82.709150 -17.574348 49.936713 118.086064 -59.774053 -84.253663 0.455239 0.348138 -11.203211 -7.125000 0.000000 0.000000 85.154046 11.365795 49.385574 -131.790162 50.613729 -94.994786 0.313856 -0.401046 -24.427797 7.125000 0.000000 0.000000 
9.494525 17.717910 -14.562813 -1.509177 -4.481812 -0.654598 -9.951131 -0.466366 -4.703757 -0.083940 6.998176 19.067941 -0.351445 3.598524 -3.619268 0.354500 -3.825400 -10.585800 15.844913 1.853291 1.194715 -0.253264 -4.995807 13.023337 1.073828 -8.719700 -4.764433 -0.189500 2.803600 -7.732400 0.911095 1.740326 -3.501114 3.375818 1.176700 -0.982458 3.897981 -1.047167 14.157384 2.985000 -1.007500 10.433600 -83.104487 -17.800788 50.941375 117.697414 -59.864395 -83.922137 0.457174 0.340677 -11.363574 -7.125000 0.000000 0.000000 85.266764 11.392797 50.784396 -131.713111 50.655944 -94.914517 0.318852 -0.393367 -24.396431 7.125000 0.000000 0.000000 
9.499147 17.706960 -14.553872 -1.201628 -4.468783 -0.928448 -10.336900 -0.316160 -4.453959 -0.079961 7.017495 19.112638 -0.380300 3.739550 -3.759461 0.497700 -4.522800 -12.552400 15.448303 1.603392 1.358409 -0.269794 -5.053671 13.194819 1.034488 -8.484285 -4.809518 -0.182800 2.753500 -7.593400 0.908396 1.689685 -3.476377 3.552796 1.149194 -1.008388 3.853722 -0.966638 14.105650 2.974600 -0.977600 10.376700 -83.570698 -17.712766 52.110105 117.319483 -59.953993 -83.600907 0.460089 0.333985 -11.476529 -7.125000 0.000000 0.000000 85.488985 11.105690 52.154160 -131.700366 50.650556 -94.893529 0.327054 -0.383439 -24.697546 7.125000 0.000000 0.000000 
9.502462 17.712787 -14.557489 -1.782535 -4.682315 -0.785795 -9.697118 -0.376544 -4.521491 -0.091918 6.963030 18.967276 -0.423212 3.925583 -3.626309 0.470100 -4.397400 -12.197500 16.150236 2.024859 1.090509 -0.299519 -5.199807 13.605558 1.032757 -8.480568 -5.024177 -0.157600 2.558100 -7.050900 0.990446 1.714731 -3.566327 3.564923 1.180501 -1.409871 3.886841 -0.863000 14.124208 3.019100 -0.939400 10.329000 -84.076081 -17.119320 53.460619 116.921804 -60.046126 -83.266396 0.467473 0.327497 -11.404892 -7.125000 0.000000 0.000000 85.788950 10.473088 53.786231 -131.483009 50.713139 -94.704339 0.333006 -0.375163 -24.634355 7.125000 0.000000 0.000000 
9.507284 17.713189 -14.554877 -1.525889 -4.687878 -0.868881 -9.974825 -0.449798 -4.455832 -0.086595 6.990291 19.039673 -0.407814 3.854438 -3.618013 0.363300 -3.871700 -10.715900 15.817246 1.910427 1.057550 -0.312907 -5.244792 13.740642 1.002116 -8.296456 -5.058862 -0.147300 2.473500 -6.816100 0.993126 1.640633 -3.577212 3.746463 1.150151 -1.509860 3.899674 -0.870897 14.019418 3.034500 -0.946500 10.238100 -84.585162 -16.802665 55.258199 116.667376 -60.098083 -83.038267 0.460662 0.328682 -11.431769 -7.125000 0.000000 0.000000 86.121136 10.130408 55.649543 -130.950779 50.929212 -94.243128 0.333942 -0.372536 -24.030339 7.125000 0.000000 0.000000 
9.510197 17.705654 -14.552968 -1.136621 -4.652246 -1.071234 -10.416279 -0.312959 -4.387163 -0.064819 7.052638 19.212012 -0.392506 3.778673 -3.521161 0.420500 -4.162100 -11.533000 15.334131 1.609895 1.147701 -0.320330 -5.259377 13.788611 0.979391 -8.155231 -4.977627 -0.182900 2.754600 -7.596200 0.959034 1.638458 -3.535444 3.830979 1.146087 -1.452225 3.885877 -0.979926 13.855208 3.015700 -0.993300 10.148800 -85.195737 -16.591178 57.584570 116.537163 -60.128303 -82.896247 0.464494 0.335427 -11.402844 -7.125000 0.000000 0.000000 86.457061 10.052569 57.454724 -130.173335 51.245326 -93.573082 0.331783 -0.375788 -23.194378 7.125000 0.000000 0.000000 
9.515823 17.698622 -14.551059 -1.232382 -4.674368 -1.161989 -10.339934 -0.153927 -4.360540 -0.051838 7.068084 19.263810 -0.382116 3.725431 -3.424072 0.498800 -4.527900 -12.566800 15.411368 1.499791 1.061715 -0.345750 -5.361891 14.081133 0.957198 -8.024468 -5.041625 -0.222800 3.038600 -8.386300 0.962595 1.657286 -3.540526 3.739722 1.160917 -1.578718 3.875574 -0.969448 13.795511 3.023100 -0.992100 10.030600 -85.771366 -16.170303 59.956166 115.913805 -60.280168 -82.361091 0.488424 0.326454 -10.924741 -7.125000 0.000000 0.000000 86.778849 9.745648 59.472975 -129.697239 51.403579 -93.141953 0.331647 -0.378075 -22.196918 7.125000 0.000000 0.000000 
